<mxfile host="multicloud-diagrams" agent="PIP package multicloud-diagrams. Generate resources in draw.io compatible format for Cloud infrastructure. Copyrights @ Roman Tsypuk 2023. MIT license." type="MultiCloud">
	<diagram id="diagram_1" name="AWS components">
		<mxGraphModel dx="1015" dy="661" grid="1" gridSize="10" guides="1" tooltips="1" connect="1" arrows="1" fold="1" page="1" pageScale="1" pageWidth="850" pageHeight="1100" math="0" shadow="1">
			<root>
				<mxCell id="0"/>
				<mxCell id="1" parent="0"/>
				<mxCell id="vertex:access_analyzer:arn:aws:access_analyzer:us-west-1:123456789012:service/access_analyzer" value="&lt;b&gt;Name&lt;/b&gt;: AWS Access Analyzer&lt;BR&gt;&lt;b&gt;ARN&lt;/b&gt;: arn:aws:access_analyzer:us-west-1:123456789012:service/access_analyzer&lt;BR&gt;-----------&lt;BR&gt;&lt;b&gt;serviceName&lt;/b&gt;: access_analyzer&lt;BR&gt;&lt;b&gt;clusterArn&lt;/b&gt;: arn:aws:access_analyzer:eu-west-1:123456789012:service/access_analyzer&lt;BR&gt;&lt;b&gt;status&lt;/b&gt;: ACTIVE&lt;BR&gt;&lt;b&gt;findings&lt;/b&gt;: 12&lt;BR&gt;&lt;b&gt;critical&lt;/b&gt;: 2&lt;BR&gt;&lt;b&gt;minor&lt;/b&gt;: 10" style="sketch=0;outlineConnect=0;fontColor=#232F3E;gradientColor=none;fillColor=#BF0816;strokeColor=none;dashed=0;verticalLabelPosition=bottom;verticalAlign=top;align=left;html=1;fontSize=12;fontStyle=0;aspect=fixed;pointerEvents=1;shape=mxgraph.aws4.access_analyzer;" parent="1" vertex="1">
					<mxGeometry width="78" height="77" as="geometry"/>
				</mxCell>
			</root>
		</mxGraphModel>
	</diagram>
</mxfile>